<svg width="50" height="35" viewBox="0 0 50 35" fill="none" xmlns="http://www.w3.org/2000/svg">
<path d="M20.3125 5.28125V7.92187H49.9727C49.9313 7.07031 49.8422 5.99375 49.5234 5.28125" fill="#EC1C24"/>
<path d="M48.125 2.64062H20.3125V5.28125H49.5234C49.2063 4.29609 48.7344 3.39766 48.125 2.64062Z" fill="#E6E7E8"/>
<path d="M42.1875 0H20.3125V2.64062H48.125C46.8211 1.00781 44.675 0 42.1875 0Z" fill="#EC1C24"/>
<path d="M49.9727 7.92187H20.3125V10.5625H50V8.80234C50 8.64531 49.9898 8.49219 49.9852 8.33828C49.982 8.29609 49.9773 8.1875 49.9727 7.92187Z" fill="#E6E7E8"/>
<path d="M20.3125 13.2031H50V10.5625H20.3125V13.2031Z" fill="#EC1C24"/>
<path d="M20.3125 15.8438H50V13.2031H20.3125V15.8438Z" fill="#E6E7E8"/>
<path d="M20.3125 15.8438H50V18.4844H20.3125V15.8438Z" fill="#EC1C24"/>
<path d="M0 18.4844V21.125H50V18.4844H20.3125H0Z" fill="#E6E7E8"/>
<path d="M0 21.125H50V23.7656H0V21.125Z" fill="#EC1C24"/>
<path d="M0.00390625 25.3898C0.00390625 25.3898 -0.003125 26.0297 0.015625 26.4063H49.9844C50.0063 26.0203 49.9961 25.3898 49.9961 25.3898L50 23.7656H0L0.00390625 25.3898Z" fill="#E6E7E8"/>
<path d="M7.8125 34.375H42.1875C44.682 34.375 46.7555 33.4688 48.1719 31.6875H1.82031C3.28281 33.5078 5.39531 34.375 7.80859 34.375" fill="#EC1C24"/>
<path d="M1.82422 31.6875H48.1758C48.7936 30.9023 49.255 30.0059 49.5352 29.0469H0.472656C0.758505 30.0028 1.21799 30.898 1.82812 31.6875" fill="#E6E7E8"/>
<path d="M0.46875 29.0469H49.5312C49.7869 28.1879 49.9391 27.3014 49.9844 26.4063H0.015625C0.0929687 27.3094 0.164844 27.9914 0.46875 29.0469Z" fill="#EC1C24"/>
<path d="M20.3125 0H7.8125C2.63516 0 0 3.84766 0 8.59375V18.4844H20.3125V0Z" fill="#176496"/>
<path d="M2.18594 4.66875L2.61094 4.34219L3.03516 4.66875L2.87031 4.14375L3.29297 3.82266H2.77109L2.60938 3.29531L2.44844 3.82266H1.92734L2.35156 4.14375L2.18594 4.66875ZM4.99375 4.66875L5.41875 4.34219L5.84297 4.66875L5.67891 4.14375L6.10078 3.82266H5.57969L5.41797 3.29531L5.25703 3.82266H4.73438L5.15859 4.14375L4.99375 4.66875ZM8.09141 4.66875L8.51562 4.34219L8.94063 4.66875L8.77578 4.14375L9.19765 3.82266H8.67969L8.51562 3.29531L8.35391 3.82266H7.83594L8.25547 4.14375L8.09141 4.66875ZM11.1664 4.66875L11.5906 4.34219L12.0156 4.66875L11.8516 4.14375L12.2734 3.82266H11.75L11.5906 3.29531L11.4297 3.82266H10.9078L11.3312 4.14375L11.1664 4.66875ZM14.2523 4.66875L14.6773 4.34219L15.1016 4.66875L14.9375 4.14375L15.3602 3.82266H14.8375L14.6766 3.29531L14.5156 3.82266H13.9945L14.4164 4.14375L14.2523 4.66875ZM3.68047 6.03984L4.10469 5.71406L4.52891 6.03984L4.36562 5.51562L4.7875 5.19453H4.26562L4.10391 4.66797L3.94531 5.19453H3.42188L3.84453 5.51562L3.68047 6.03984ZM6.48906 6.03984L6.91328 5.71406L7.3375 6.03984L7.17344 5.51562L7.59531 5.19453H7.07031L6.91328 4.66797L6.75156 5.19453H6.23047L6.65312 5.51562L6.48906 6.03984ZM9.58672 6.03984L10.0102 5.71406L10.4344 6.03984L10.2703 5.51562L10.693 5.19453H10.1719L10.0102 4.66797L9.84844 5.19453H9.32656L9.74922 5.51562L9.58672 6.03984ZM12.6602 6.03984L13.0852 5.71406L13.5102 6.03984L13.3437 5.51562L13.7672 5.19453H13.2461L13.0844 4.66797L12.9242 5.19453H12.4023L12.825 5.51562L12.6602 6.03984ZM15.75 6.03984L16.1711 5.71406L16.5953 6.03984L16.4297 5.51562L16.8531 5.19453H16.3328L16.1703 4.66797L16.0102 5.19453H15.4883L15.9109 5.51562L15.75 6.03984ZM17.4898 4.66875L17.9141 4.34219L18.3391 4.66875L18.1742 4.14375L18.5961 3.82266H18.0781L17.9133 3.29531L17.7523 3.82266H17.2266L17.6539 4.14375L17.4898 4.66875ZM2.14453 15.6406L2.56953 15.318L2.99375 15.6406L2.82969 15.1203L3.25156 14.7984L2.73047 14.8L2.56797 14.2734L2.40859 14.8L1.88594 14.7984L2.30859 15.1203L2.14453 15.6406ZM4.95312 15.6406L5.37734 15.318L5.80234 15.6406L5.6375 15.1203L6.05937 14.7984L5.53906 14.8L5.37656 14.2734L5.21641 14.8L4.69531 14.7984L5.11719 15.1203L4.95312 15.6406ZM8.05078 15.6406L8.475 15.318L8.9 15.6406L8.73516 15.1203L9.15703 14.7984L8.63281 14.8L8.47422 14.2734L8.31328 14.8L7.79219 14.7984L8.21484 15.1203L8.05078 15.6406ZM11.1258 15.6406L11.55 15.318L11.9742 15.6406L11.8125 15.1203L12.232 14.7984L11.7102 14.8L11.5492 14.2734L11.3883 14.8L10.8672 14.7984L11.2891 15.1203L11.1258 15.6406ZM14.2109 15.6406L14.6359 15.318L15.0609 15.6406L14.8984 15.1203L15.318 14.7984L14.7969 14.8L14.6352 14.2734L14.475 14.8L13.9531 14.7984L14.375 15.1203L14.2109 15.6406ZM17.4484 15.6406L17.8727 15.318L18.2977 15.6406L18.1328 15.1203L18.5555 14.7984L18.0312 14.8L17.8719 14.2734L17.7109 14.8L17.1875 14.7984L17.6125 15.1203L17.4484 15.6406ZM2.18594 7.4125L2.61094 7.08594L3.03516 7.4125L2.87031 6.8875L3.29297 6.56641L2.77109 6.56797L2.60938 6.03984L2.44844 6.56797L1.92734 6.56641L2.35156 6.8875L2.18594 7.4125ZM4.99375 7.4125L5.41875 7.08594L5.84297 7.4125L5.67891 6.8875L6.10078 6.56641L5.57969 6.56797L5.41797 6.03984L5.25703 6.56797L4.73438 6.56641L5.15859 6.8875L4.99375 7.4125ZM8.09141 7.4125L8.51562 7.08594L8.94063 7.4125L8.77578 6.8875L9.19765 6.56641L8.67969 6.56797L8.51562 6.03984L8.35391 6.56797L7.83594 6.56641L8.25547 6.8875L8.09141 7.4125ZM11.1664 7.4125L11.5906 7.08594L12.0156 7.4125L11.8516 6.8875L12.2734 6.56641L11.75 6.56797L11.5906 6.03984L11.4297 6.56797L10.9078 6.56641L11.3312 6.8875L11.1664 7.4125ZM14.2523 7.4125L14.6773 7.08594L15.1016 7.4125L14.9375 6.8875L15.3602 6.56641L14.8375 6.56797L14.6766 6.03984L14.5156 6.56797L13.9945 6.56641L14.4164 6.8875L14.2523 7.4125ZM3.68047 8.78437L4.10469 8.45859L4.52891 8.78437L4.36562 8.26016L4.7875 7.9375H4.26562L4.10391 7.4125L3.94531 7.9375H3.42188L3.84453 8.26016L3.68047 8.78437ZM6.48906 8.78437L6.91328 8.45859L7.3375 8.78437L7.17344 8.26016L7.59531 7.9375H7.07031L6.91328 7.4125L6.75156 7.9375H6.23047L6.65312 8.26016L6.48906 8.78437ZM9.58672 8.78437L10.0102 8.45859L10.4344 8.78437L10.2703 8.26016L10.693 7.9375H10.1719L10.0102 7.4125L9.84844 7.9375H9.32656L9.74922 8.26016L9.58672 8.78437ZM12.6602 8.78437L13.0852 8.45859L13.5102 8.78437L13.3437 8.26016L13.7672 7.9375H13.2461L13.0844 7.4125L12.9242 7.9375H12.4023L12.825 8.26016L12.6602 8.78437ZM15.75 8.78437L16.1711 8.45859L16.5953 8.78437L16.4297 8.26016L16.8531 7.9375H16.3328L16.1703 7.4125L16.0102 7.9375H15.4883L15.9109 8.26016L15.75 8.78437ZM17.4898 7.4125L17.9141 7.08594L18.3391 7.4125L18.1742 6.8875L18.5961 6.56641L18.0781 6.56797L17.9133 6.03984L17.7523 6.56797L17.2266 6.56641L17.6539 6.8875L17.4898 7.4125ZM2.14453 10.1562L2.56953 9.83047L2.99375 10.1562L2.82891 9.63281L3.25156 9.31094L2.72969 9.3125L2.56797 8.78437L2.40859 9.3125L1.88594 9.31094L2.30859 9.63281L2.14453 10.1562ZM4.95312 10.1562L5.37734 9.83047L5.80234 10.1562L5.6375 9.63281L6.05937 9.31094L5.53906 9.3125L5.37656 8.78437L5.21641 9.3125L4.69531 9.31094L5.11641 9.63281L4.95312 10.1562ZM8.05078 10.1562L8.475 9.83047L8.89922 10.1562L8.73516 9.63281L9.15703 9.31094L8.63281 9.3125L8.47422 8.78437L8.31328 9.3125L7.79219 9.31094L8.21484 9.63281L8.05078 10.1562ZM11.1258 10.1562L11.5492 9.83047L11.9742 10.1562L11.8125 9.63281L12.232 9.31094L11.7102 9.3125L11.5492 8.78437L11.3883 9.3125L10.8672 9.31094L11.2891 9.63281L11.1258 10.1562ZM14.2109 10.1562L14.6359 9.83047L15.0602 10.1562L14.8984 9.63281L15.318 9.31094L14.7961 9.3125L14.6352 8.78437L14.475 9.3125L13.9531 9.31094L14.375 9.63281L14.2109 10.1562ZM3.63906 11.5281L4.06328 11.2031L4.4875 11.5281L4.32422 11.0078L4.74531 10.6844H4.22344L4.0625 10.1562L3.90234 10.6844H3.38047L3.80312 11.0078L3.63906 11.5281ZM6.44766 11.5281L6.87187 11.2031L7.29609 11.5281L7.13203 11.0078L7.55391 10.6844H7.03125L6.87109 10.1562L6.71016 10.6844H6.18828L6.61172 11.0078L6.44766 11.5281ZM9.54609 11.5281L9.96875 11.2031L10.3937 11.5281L10.2266 11.0078L10.6516 10.6844H10.1305L9.96875 10.1562L9.80781 10.6844H9.28594L9.70859 11.0078L9.54609 11.5281ZM12.6172 11.5281L13.0437 11.2031L13.4687 11.5281L13.3047 11.0078L13.7258 10.6844H13.2047L13.043 10.1562L12.8828 10.6844H12.3609L12.7836 11.0078L12.6172 11.5281ZM15.7031 11.5281L16.1297 11.2031L16.5547 11.5281L16.3898 11.0078L16.8133 10.6844H16.2922L16.1297 10.1562L15.9688 10.6844H15.4469L15.8695 11.0078L15.7031 11.5281ZM17.4484 10.1562L17.8727 9.83047L18.2969 10.1562L18.1328 9.63281L18.5555 9.31094L18.0312 9.3125L17.8719 8.78437L17.7109 9.3125L17.1875 9.31094L17.6125 9.63281L17.4484 10.1562ZM2.14453 12.9008L2.56953 12.5781L2.99375 12.9008L2.82891 12.3766L3.25156 12.0547L2.72969 12.0562L2.56797 11.5281L2.40859 12.0562L1.88594 12.0547L2.30859 12.3766L2.14453 12.9008ZM4.95312 12.9008L5.37734 12.5781L5.80234 12.9008L5.6375 12.3766L6.05937 12.0547L5.53906 12.0562L5.37656 11.5281L5.21641 12.0562L4.69531 12.0547L5.11641 12.3766L4.95312 12.9008ZM8.05078 12.9008L8.475 12.5781L8.89922 12.9008L8.73516 12.3766L9.15703 12.0547L8.63281 12.0562L8.47422 11.5281L8.31328 12.0562L7.79219 12.0547L8.21484 12.3766L8.05078 12.9008ZM11.1258 12.9008L11.5492 12.5781L11.9742 12.9008L11.8125 12.3766L12.232 12.0547L11.7102 12.0562L11.5492 11.5281L11.3883 12.0562L10.8672 12.0547L11.2891 12.3766L11.1258 12.9008ZM14.2109 12.9008L14.6359 12.5781L15.0602 12.9008L14.8984 12.3766L15.318 12.0547L14.7961 12.0562L14.6352 11.5281L14.475 12.0562L13.9531 12.0547L14.375 12.3766L14.2109 12.9008ZM3.63906 14.2734L4.06328 13.9469L4.4875 14.2734L4.32422 13.7484L4.74531 13.4297H4.22344L4.0625 12.9008L3.90234 13.4297H3.38047L3.80312 13.7484L3.63906 14.2734ZM6.44766 14.2734L6.87187 13.9469L7.29609 14.2734L7.13203 13.7484L7.55391 13.4297H7.03125L6.87109 12.9008L6.71016 13.4297H6.18828L6.61172 13.7484L6.44766 14.2734ZM9.54609 14.2734L9.96875 13.9469L10.3937 14.2734L10.2266 13.7484L10.6516 13.4297H10.1305L9.96875 12.9008L9.80781 13.4297H9.28594L9.70859 13.7484L9.54609 14.2734ZM12.6172 14.2734L13.0437 13.9469L13.4687 14.2734L13.3047 13.7484L13.7258 13.4297H13.2047L13.043 12.9008L12.8828 13.4297H12.3609L12.7836 13.7484L12.6172 14.2734ZM15.7031 14.2734L16.1297 13.9469L16.5547 14.2734L16.3898 13.7484L16.8133 13.4297H16.2922L16.1297 12.9008L15.9688 13.4297H15.4469L15.8695 13.7484L15.7031 14.2734ZM17.4484 12.9008L17.8727 12.5781L18.2969 12.9008L18.1328 12.3766L18.5555 12.0547L18.0312 12.0562L17.8719 11.5281L17.7109 12.0562L17.1875 12.0547L17.6125 12.3766L17.4484 12.9008Z" fill="white"/>
</svg>
