<svg width="50" height="35" viewBox="0 0 50 35" fill="none" xmlns="http://www.w3.org/2000/svg">
<path d="M50 25.7812C50 30.5273 47.3648 34.375 42.1875 34.375H7.8125C2.63516 34.375 0 30.5273 0 25.7812V8.59375C0 3.84766 2.63516 0 7.8125 0H42.1875C47.3648 0 50 3.84766 50 8.59375V25.7812Z" fill="#128807"/>
<path d="M44.6406 17.8047L25.1172 31.5234L5.59297 17.8047L25.1172 4.08594L44.6406 17.8047Z" fill="#F9CB38"/>
<path fill-rule="evenodd" clip-rule="evenodd" d="M32.8203 20.1938C31.9312 23.2148 29.1492 25.5148 25.9992 25.8273C21.7906 26.2484 18.1086 23.5734 17.2133 19.4383C16.9483 18.2231 16.982 16.9618 17.3117 15.7625C17.4344 15.6297 17.6039 15.5977 17.7727 15.5742C19.0035 15.4022 20.2479 15.348 21.4891 15.4125C22.8133 15.4875 24.1266 15.6711 25.4031 16.032C26.7133 16.4031 27.982 16.8875 29.1797 17.5312C30.0812 18.0098 30.9421 18.5611 31.7539 19.1797C32.0289 19.393 32.3094 19.6023 32.5734 19.8297C32.6914 19.9312 32.7844 20.0406 32.8203 20.1938Z" fill="#002776"/>
<path fill-rule="evenodd" clip-rule="evenodd" d="M17.7531 14.5398C18.7617 12.2859 20.4625 10.7852 22.8133 10.0805C27.5477 8.66094 32.4047 11.7898 33.1086 16.6695C33.218 17.4234 33.2227 18.1797 33.107 18.9352C32.9875 18.9797 32.8984 18.9164 32.8164 18.8484C31.9584 18.1473 31.0429 17.5196 30.0797 16.9719C29.338 16.5509 28.5673 16.1833 27.7734 15.8719C27.6328 15.8164 27.4563 15.7875 27.4078 15.5992C27.4586 15.5086 27.5227 15.4297 27.5992 15.3562C27.6266 15.3281 27.6664 15.3008 27.6297 15.2539C27.6172 15.2391 27.5914 15.2391 27.5695 15.2414C27.5109 15.2477 27.5188 15.2883 27.5211 15.3313C27.5258 15.4711 27.4445 15.5609 27.3375 15.6328C27.1477 15.6758 26.9656 15.6187 26.8117 15.5367C26.3711 15.3055 25.8836 15.2266 25.4172 15.0977C24.6898 14.9 23.943 14.7883 23.1977 14.6719C22.6028 14.5771 22.004 14.5088 21.4031 14.4672C20.8563 14.4289 20.2992 14.4344 19.7484 14.4719C19.1477 14.5141 18.5453 14.5563 17.9477 14.6281C17.9102 14.6339 17.8718 14.6286 17.8373 14.6129C17.8027 14.5973 17.7735 14.5719 17.7531 14.5398Z" fill="#002776"/>
<path fill-rule="evenodd" clip-rule="evenodd" d="M27.4141 15.5508C27.4109 15.6461 27.4961 15.6336 27.5477 15.6539C29.5652 16.4386 31.4414 17.5469 33.1023 18.9352C33.0547 19.3638 32.9606 19.7859 32.8203 20.1938C31.843 19.3828 30.8414 18.6102 29.7344 17.9789C26.2352 15.9859 22.4883 15.1961 18.4828 15.6195C18.0922 15.6594 17.7016 15.7125 17.3109 15.7602C17.4117 15.3375 17.5398 14.9227 17.75 14.5383C20.6742 14.1437 23.5477 14.368 26.3672 15.2406C26.7172 15.3492 27.0508 15.5242 27.4242 15.557L27.4141 15.5484" fill="#FEFEFE"/>
<path fill-rule="evenodd" clip-rule="evenodd" d="M31.0547 20.5859C30.8195 20.5609 31.075 20.8492 30.8375 20.843C30.6305 20.8398 30.6195 20.6742 30.518 20.582C30.5961 20.5008 30.7344 20.4844 30.7781 20.3578C30.8078 20.4914 30.9336 20.5195 31.0547 20.5859Z" fill="#D9DFEA"/>
<path fill-rule="evenodd" clip-rule="evenodd" d="M22.1828 22.0312C21.9617 22.057 22.1469 22.2977 21.9617 22.3016C21.775 22.3055 21.6789 22.1672 21.6414 22.0242C21.6281 21.9836 21.8078 21.893 21.8961 21.8258C21.907 21.9672 22.0539 21.9609 22.1828 22.0312Z" fill="#E9ECF3"/>
<path fill-rule="evenodd" clip-rule="evenodd" d="M25.1094 21.5961C24.8023 21.7945 25.05 21.3461 24.8695 21.3898C24.9281 21.2961 25.0937 21.318 25.1047 21.1742C25.1828 21.2555 25.2492 21.3492 25.3734 21.3664C25.1961 21.3422 25.3891 21.7359 25.1094 21.5961Z" fill="#EDEFF5"/>
<path fill-rule="evenodd" clip-rule="evenodd" d="M18.7656 16.332C18.6922 16.4719 18.6367 16.6281 18.4141 16.5344C18.3 16.4867 18.4219 16.3305 18.2852 16.3156L18.5383 16.093L18.593 16.2016C18.6133 16.2945 18.7984 16.1711 18.7656 16.332Z" fill="#F0F2F6"/>
<path fill-rule="evenodd" clip-rule="evenodd" d="M19.4742 19.7266C19.3578 19.7633 19.4414 20.0695 19.1914 19.9359C19.1664 19.9234 19.057 19.9836 19.0773 19.9484C19.143 19.8203 18.9961 19.7578 19.0187 19.6555C19.1555 19.7148 19.1477 19.4648 19.2875 19.532C19.2977 19.5398 19.2977 19.5711 19.3047 19.5914C19.3195 19.6883 19.5086 19.5672 19.4742 19.7266Z" fill="#ECEFF4"/>
<path fill-rule="evenodd" clip-rule="evenodd" d="M18.2453 20.6313C18.0055 20.7148 18.1844 20.425 18.0469 20.4273C18.1109 20.3734 18.1828 20.2727 18.2469 20.2766C18.3234 20.2805 18.3938 20.375 18.4641 20.4289C18.3594 20.4641 18.4695 20.7477 18.2453 20.6313Z" fill="#D9DFEA"/>
<path fill-rule="evenodd" clip-rule="evenodd" d="M27.5156 23.3961C27.2617 23.5117 27.5086 23.1703 27.3391 23.2148C27.3219 23.0844 27.5336 23.1633 27.507 23.0258L27.7359 23.2094C27.643 23.2516 27.7359 23.5172 27.5156 23.3961Z" fill="#D8DEEA"/>
<path fill-rule="evenodd" clip-rule="evenodd" d="M29.1406 23.2078C28.9305 23.2953 29.0594 23.0125 28.9461 22.9844C29.0227 22.9352 29.1031 22.8828 29.1781 22.832C29.1844 22.9477 29.343 22.9055 29.3602 23.0078C29.2422 23.0148 29.3648 23.2695 29.1406 23.2078ZM30.6016 22.1562C30.3625 22.2773 30.5391 21.9594 30.4023 21.9727C30.4297 21.8711 30.5867 21.9094 30.5961 21.7922L30.8203 21.9602C30.6836 21.9563 30.8516 22.2914 30.6016 22.1562Z" fill="#DCE1EC"/>
<path fill-rule="evenodd" clip-rule="evenodd" d="M20.9242 20.6977C20.6742 20.8391 20.8375 20.5227 20.7219 20.5164C20.7336 20.4 20.9102 20.45 20.918 20.3266C20.9414 20.4406 21.093 20.4078 21.1258 20.5102C20.9766 20.4883 21.1891 20.8469 20.9242 20.6977Z" fill="#D4DAE7"/>
<path fill-rule="evenodd" clip-rule="evenodd" d="M21.9375 18.3242C21.7961 18.3148 21.9773 18.0922 21.8039 18.1062C21.8336 17.9812 21.9672 18.007 22.0406 17.9422C22.0781 18.0211 22.1844 18.0391 22.1898 18.1523C22.2023 18.3594 22.0188 18.2523 21.9375 18.3242Z" fill="#F2F4F7"/>
<path fill-rule="evenodd" clip-rule="evenodd" d="M26.0547 19.9742C25.8383 20.0984 25.9523 19.8211 25.8523 19.7906L26.0547 19.6195C26.0594 19.7352 26.2805 19.7094 26.218 19.7984C26.1805 19.8516 26.3016 20.0945 26.0547 19.9742Z" fill="#E6E9F1"/>
<path fill-rule="evenodd" clip-rule="evenodd" d="M25.0859 19.2781C24.8391 19.3031 25.0938 19.0789 24.9336 19.0844C24.9961 19.0258 25.0562 18.9258 25.1266 18.9195C25.1875 18.9133 25.2578 19.0125 25.3242 19.0672C25.2375 19.1508 25.2508 19.3664 25.0859 19.2781Z" fill="#EAEDF3"/>
<path fill-rule="evenodd" clip-rule="evenodd" d="M31.0797 21.1016C31.1305 21.2359 31.2305 21.2539 31.3086 21.3016C31.2289 21.3914 31.1977 21.5289 31.032 21.5289C30.8625 21.5305 30.9773 21.4016 30.9391 21.3414C30.8445 21.1914 31.1938 21.318 31.0797 21.1016Z" fill="#E4E8F0"/>
<path fill-rule="evenodd" clip-rule="evenodd" d="M29.3109 23.8234C29.2516 23.9117 29.2922 23.9961 29.1344 23.9992C28.9539 24.0023 29.0117 23.8703 29.0039 23.8297C28.9891 23.7625 29.0922 23.6984 29.1516 23.7117C29.2031 23.7211 29.3031 23.75 29.3109 23.8234Z" fill="#CED5E4"/>
<path fill-rule="evenodd" clip-rule="evenodd" d="M20.8703 21.3203C20.7414 21.3352 20.8484 21.5039 20.6852 21.4984C20.5359 21.4938 20.5578 21.393 20.5414 21.332C20.5156 21.2469 20.6414 21.2492 20.6695 21.1852C20.7289 21.2266 20.7891 21.268 20.8703 21.3203Z" fill="#DAE0EB"/>
<path fill-rule="evenodd" clip-rule="evenodd" d="M28.9609 22.2125C29.0161 22.1719 29.0727 22.1323 29.1305 22.0938C29.1352 22.1805 29.3219 22.1305 29.2594 22.2414C29.2336 22.2859 29.2969 22.4078 29.1352 22.3969C28.9898 22.3867 29.0242 22.2852 28.9609 22.2125Z" fill="#D8DEE9"/>
<path fill-rule="evenodd" clip-rule="evenodd" d="M28.3672 22.4805C28.3391 22.6344 28.2516 22.6594 28.1555 22.6773C27.9922 22.7047 28.1148 22.582 28.0883 22.5352C28.0195 22.418 28.193 22.4406 28.2133 22.3641C28.2586 22.4234 28.3625 22.4219 28.3672 22.4805Z" fill="#CBD2E3"/>
<path fill-rule="evenodd" clip-rule="evenodd" d="M27.4531 17.4141C27.3984 17.4398 27.4711 17.5703 27.3539 17.5328C27.2648 17.5023 27.1555 17.4602 27.1633 17.3508C27.1664 17.3086 27.2727 17.2734 27.332 17.2367C27.3422 17.3156 27.5109 17.2898 27.4531 17.4141Z" fill="#D1D8E6"/>
<path fill-rule="evenodd" clip-rule="evenodd" d="M31.8742 20.8406C31.7273 20.8984 31.7937 20.7773 31.768 20.7422C31.6695 20.6086 31.8641 20.6281 31.8742 20.5484C31.9344 20.5883 32.0516 20.6336 32.0469 20.668C32.0435 20.7126 32.0242 20.7546 31.9925 20.7863C31.9608 20.8179 31.9189 20.8372 31.8742 20.8406Z" fill="#DADFEA"/>
<path fill-rule="evenodd" clip-rule="evenodd" d="M24.3203 19.6484C24.3203 19.7391 24.5031 19.7031 24.4414 19.8164C24.4164 19.8625 24.4695 19.9859 24.343 19.9602C24.2469 19.9406 24.15 19.8844 24.1469 19.7891C24.1469 19.7445 24.2578 19.6969 24.3203 19.6484Z" fill="#CAD2E2"/>
<path fill-rule="evenodd" clip-rule="evenodd" d="M26.8203 22.475C26.7484 22.4414 26.7453 22.3469 26.75 22.3016C26.7578 22.2414 26.8383 22.1602 26.907 22.193C26.9492 22.2133 27.0688 22.2016 27.0398 22.3109C27.0133 22.4156 26.9086 22.4305 26.8203 22.475Z" fill="#D0D7E5"/>
<path fill-rule="evenodd" clip-rule="evenodd" d="M29.8438 22.3375C29.8469 22.3367 29.9016 22.2609 29.9633 22.2594C30.0078 22.2578 30.0531 22.35 30.1008 22.4016C30.0367 22.4195 30.0914 22.5375 29.9648 22.5359C29.8508 22.5336 29.8508 22.482 29.8438 22.3375Z" fill="#EFF2F6"/>
<path fill-rule="evenodd" clip-rule="evenodd" d="M24.8172 20.3594C24.7961 20.4438 24.7961 20.4961 24.7211 20.4945C24.6445 20.493 24.607 20.4648 24.6086 20.3867C24.6086 20.325 24.6492 20.282 24.6953 20.2859C24.7484 20.2898 24.8242 20.3047 24.8172 20.3594Z" fill="#CCD4E3"/>
<path fill-rule="evenodd" clip-rule="evenodd" d="M20.0266 19.1438C20.0641 19.1844 20.107 19.2164 20.1234 19.2578C20.1375 19.2922 20.1156 19.3445 20.0672 19.35C20.0133 19.3547 19.9555 19.3531 19.9383 19.2859C19.9227 19.2203 19.9797 19.1969 20.0266 19.1438Z" fill="#E0E5EE"/>
<path fill-rule="evenodd" clip-rule="evenodd" d="M19.4742 19.7266C19.4531 19.6367 19.3141 19.6945 19.3047 19.5914C19.3344 19.6695 19.5664 19.4945 19.4742 19.7266Z" fill="#7085B1"/>
<path fill-rule="evenodd" clip-rule="evenodd" d="M18.7656 16.332C18.7484 16.2359 18.6008 16.3117 18.593 16.2016C18.6344 16.2672 18.8438 16.1117 18.7656 16.332Z" fill="#5C75A7"/>
<path fill-rule="evenodd" clip-rule="evenodd" d="M27.4297 15.5594C27.4445 15.5 27.4922 15.4031 27.4734 15.3852C27.2188 15.1586 27.5586 15.1203 27.6094 15.0742C27.7023 14.9844 27.6875 15.3633 27.9328 15.1234C27.8008 15.4164 27.6242 15.5008 27.4211 15.5508L27.4297 15.5594Z" fill="#E7EAF2"/>
<path fill-rule="evenodd" clip-rule="evenodd" d="M19.8992 15.3164C19.6508 15.2922 19.8719 14.9688 19.818 14.7812C19.7508 14.5391 19.9273 14.5422 20.0992 14.5414C20.3656 14.5398 20.5164 14.6523 20.5164 14.9336C20.5156 15.2102 20.3875 15.3195 19.8992 15.3164Z" fill="#15A24A"/>
<path fill-rule="evenodd" clip-rule="evenodd" d="M29.3914 16.8773C29.3367 17.0445 29.1344 17.1492 29.1 17.3555C29.0969 17.3828 29.0187 17.3773 29.0039 17.2977C28.9414 16.9242 28.9383 16.925 28.6625 17.125C28.6406 17.1414 28.6023 17.1563 28.5813 17.1492C28.5406 17.1313 28.5242 17.0906 28.5484 17.0445C28.6398 16.8664 28.7258 16.6836 28.8281 16.5109C28.8969 16.3969 28.9805 16.4922 29.0477 16.525C29.1953 16.5977 29.3773 16.6391 29.3914 16.8773Z" fill="#13A248"/>
<path fill-rule="evenodd" clip-rule="evenodd" d="M30.0906 17.4852C29.9469 17.543 29.8773 17.4344 29.7852 17.3953C29.7227 17.3687 29.6641 17.3438 29.6219 17.4133C29.5758 17.4867 29.6219 17.5289 29.6852 17.5617C29.7336 17.5859 29.7852 17.6047 29.8211 17.643C29.8844 17.7094 30.0828 17.6914 30.0023 17.8328C29.9391 17.9453 29.8328 17.8141 29.7625 17.7727C29.6414 17.6984 29.4016 17.6578 29.4273 17.5289C29.4672 17.3219 29.5852 17.0969 29.7422 16.9547C29.868 16.8406 30.007 17.0562 30.1484 17.1102C30.2094 17.1328 30.3133 17.1531 30.2953 17.2492C30.2781 17.3484 30.2047 17.2906 30.1484 17.2773C30.0164 17.2469 29.8883 17.0234 29.7844 17.1781C29.7219 17.2703 29.9789 17.3086 30.0602 17.4102C30.0727 17.425 30.0758 17.4453 30.0906 17.4852ZM31.7742 18.5898C31.7977 18.7727 31.7234 18.8969 31.532 18.8656C31.3336 18.8328 31.1828 18.7117 31.1484 18.4945C31.1453 18.4727 31.1719 18.4281 31.1938 18.4219C31.2063 18.4177 31.2197 18.4164 31.2328 18.418C31.246 18.4196 31.2586 18.4241 31.2699 18.4311C31.2811 18.4381 31.2907 18.4474 31.2979 18.4585C31.3052 18.4696 31.3099 18.4822 31.3117 18.4953C31.3367 18.6445 31.4148 18.7109 31.5719 18.7141C31.6023 18.4695 31.1609 18.3578 31.4148 18.1039C31.5422 17.9766 31.6977 18.082 31.8086 18.1844C31.9109 18.2773 32.0359 18.3797 31.8492 18.5125C31.8227 18.4984 31.7867 18.4758 31.7672 18.4914C31.7273 18.518 31.7664 18.5562 31.7742 18.5898Z" fill="#11A147"/>
<path fill-rule="evenodd" clip-rule="evenodd" d="M26.3781 16.2633C26.2852 16.2109 26.2898 16.1609 26.3047 16.1062C26.3344 15.9898 26.2742 15.9289 26.168 15.8961C26.0617 15.8617 25.9797 15.8664 25.9508 15.9992C25.9406 16.0586 25.9094 16.1 25.8445 16.0781C25.7695 16.0508 25.807 15.9898 25.8211 15.9453C25.8508 15.843 25.8773 15.7398 25.9242 15.6422C25.9664 15.5445 25.9367 15.3656 26.0906 15.3773C26.2539 15.3891 26.4305 15.4281 26.5547 15.5633C26.6102 15.6227 26.6328 15.725 26.5875 15.7695C26.4555 15.9055 26.4664 16.0977 26.3781 16.2633Z" fill="#0FA046"/>
<path fill-rule="evenodd" clip-rule="evenodd" d="M21.557 15.2688C21.3047 15.3641 21.1055 15.3086 20.9109 15.3125C20.8227 15.3148 20.8148 15.2484 20.8148 15.1812C20.8201 15.1068 20.8221 15.0323 20.8211 14.9578C20.8305 14.5461 20.9766 14.4406 21.3813 14.5555C21.4266 14.568 21.4695 14.5758 21.4727 14.6266C21.4727 14.6969 21.4219 14.7094 21.3594 14.7078C21.3505 14.7057 21.3406 14.7049 21.3297 14.7055C21.2086 14.7352 20.9914 14.5984 20.9875 14.7797C20.9828 14.9187 21.2195 14.8203 21.3406 14.8672C21.3568 14.875 21.3776 14.8891 21.4031 14.9094C21.3266 15.0477 21.1992 14.9703 21.1008 14.9867C21.0422 14.9961 20.9656 14.9703 20.957 15.0656C20.9461 15.1781 21.0242 15.1727 21.1008 15.1805C21.2313 15.1961 21.3727 15.1469 21.557 15.2688Z" fill="#0B9F43"/>
<path fill-rule="evenodd" clip-rule="evenodd" d="M19.4828 15.3281C19.3469 15.2984 19.3656 15.2203 19.3422 15.1656C19.3016 15.0648 19.2211 15.0648 19.1328 15.0719C19.032 15.0813 18.9773 15.1203 18.9859 15.232C18.9922 15.2867 19.0141 15.375 18.9125 15.3625C18.825 15.3516 18.85 15.2664 18.8453 15.2086C18.8375 15.1141 18.8281 15.0172 18.8375 14.9234C18.85 14.8187 18.75 14.6586 18.9008 14.6211C19.0563 14.5805 19.2359 14.5516 19.3977 14.6289C19.468 14.6625 19.5234 14.7445 19.4977 14.8109C19.4383 14.9781 19.4852 15.1477 19.4828 15.3281Z" fill="#079D3F"/>
<path fill-rule="evenodd" clip-rule="evenodd" d="M17.8336 15.0625C17.8586 14.8508 17.9516 14.6789 18.1836 14.6867C18.4062 14.6938 18.525 14.8484 18.525 15.0711C18.525 15.2922 18.4219 15.4445 18.1867 15.443C17.9477 15.4414 17.8664 15.268 17.8336 15.0625Z" fill="#15A24A"/>
<path fill-rule="evenodd" clip-rule="evenodd" d="M32.7062 19.0312C32.6844 19.2414 32.5805 19.4 32.3406 19.4211C32.1195 19.4391 32.0023 19.3125 31.9852 19.1047C31.9656 18.8945 32.1719 18.6937 32.382 18.6953C32.5664 18.6969 32.7016 18.8305 32.7062 19.0312Z" fill="#11A147"/>
<path fill-rule="evenodd" clip-rule="evenodd" d="M28.3203 16.5859C28.4969 16.7281 28.2828 16.8219 28.275 16.9414C28.1281 16.8734 27.9445 16.9008 27.8258 16.7719C27.6992 16.6344 27.7227 16.4789 27.8055 16.3273C27.8969 16.1672 28.0375 16.0984 28.2102 16.1594C28.368 16.2156 28.4859 16.3219 28.4094 16.5219C28.2883 16.5438 28.1891 16.3844 28.0187 16.4914C28.132 16.5437 28.268 16.4711 28.3203 16.5859Z" fill="#0C9F43"/>
<path fill-rule="evenodd" clip-rule="evenodd" d="M24.0703 14.9766C23.9672 15.0977 23.8914 15.0508 23.8203 15.0523C23.7516 15.0523 23.6781 14.9953 23.593 15.0664C23.6695 15.1914 23.8547 15.1109 23.9266 15.2352C23.9164 15.2531 23.9117 15.2773 23.8984 15.2898C23.7953 15.3711 23.6305 15.1742 23.5664 15.3367C23.5078 15.4766 23.6617 15.4281 23.7281 15.4516C23.8031 15.4813 23.8961 15.4703 23.9867 15.5719C23.7766 15.6641 23.5258 15.6211 23.4391 15.5195C23.3023 15.3594 23.3984 15.075 23.5023 14.9328C23.625 14.7648 23.8492 14.9289 24.0703 14.9766Z" fill="#19A44D"/>
<path fill-rule="evenodd" clip-rule="evenodd" d="M25.4023 15.6563C25.225 15.6375 25.0234 15.5125 24.9727 15.8047C24.9711 15.8141 24.9094 15.8273 24.8906 15.8148C24.8695 15.8031 24.8578 15.7594 24.8617 15.7344C24.9078 15.5492 24.9312 15.3508 25.0133 15.1844C25.1086 14.9969 25.2703 15.1555 25.4039 15.1734C25.5633 15.1945 25.6516 15.2914 25.6344 15.4594C25.6187 15.6039 25.5094 15.643 25.4023 15.6563Z" fill="#0D9F44"/>
<path fill-rule="evenodd" clip-rule="evenodd" d="M27.5156 16.1039C27.4984 16.3391 27.3828 16.5016 27.1477 16.5086C26.9375 16.5164 26.8195 16.3687 26.8242 16.1594C26.8305 15.9328 26.9406 15.7687 27.1852 15.7617C27.4094 15.7539 27.4961 15.9047 27.5156 16.1039Z" fill="#0FA046"/>
<path fill-rule="evenodd" clip-rule="evenodd" d="M22.2492 15.2555C22.2234 15.3109 22.2023 15.3898 22.1281 15.3719C21.9992 15.3414 22.057 15.2172 22.0258 15.1359C21.9305 15.043 21.9555 15.1711 21.9258 15.1945C21.9148 15.2523 21.9414 15.3406 21.8633 15.3523C21.7672 15.3641 21.7898 15.2719 21.7922 15.2172C21.8 15.1031 21.8016 14.9836 21.8328 14.8742C21.8602 14.7805 21.7609 14.6078 21.9477 14.6062C22.1125 14.6055 22.0766 14.7734 22.0977 14.8742C22.1195 14.9898 22.1312 15.0391 22.2258 14.9242C22.3234 14.8984 22.3437 14.9695 22.3664 15.0383C22.3789 15.1383 22.3344 15.2078 22.2492 15.2555Z" fill="#0EA044"/>
<path fill-rule="evenodd" clip-rule="evenodd" d="M30.5703 18.125C30.6281 18.125 30.6867 18.2016 30.743 18.1359C30.7859 18.0867 30.7477 18.0383 30.7094 17.9984C30.6802 17.9687 30.6521 17.938 30.625 17.9062C30.5453 17.8102 30.4336 17.718 30.5438 17.5789C30.6438 17.4516 30.7602 17.4828 30.8758 17.5633C30.8969 17.6039 30.8898 17.643 30.868 17.6797C30.7828 17.8133 30.9414 17.8945 30.9383 18.0086C30.9625 18.1156 30.9781 18.2234 30.8602 18.2852C30.7133 18.3633 30.6 18.2914 30.4922 18.1977C30.4805 18.1359 30.5031 18.1055 30.5703 18.125Z" fill="#10A146"/>
<path fill-rule="evenodd" clip-rule="evenodd" d="M28.3203 16.5859C28.2602 16.6281 28.1391 16.4914 28.143 16.5945C28.1508 16.7773 28.0594 16.7609 27.9742 16.707C27.8594 16.6359 27.8531 16.5141 27.9258 16.4016C27.9961 16.2914 28.0953 16.2273 28.2156 16.3172C28.2891 16.3711 28.3445 16.4523 28.4078 16.5219L28.3203 16.5859Z" fill="#ECF7F0"/>
<path fill-rule="evenodd" clip-rule="evenodd" d="M22.3008 15.0703C22.2782 15.0219 22.2532 14.9747 22.2258 14.9289C22.2531 14.8594 22.2781 14.7891 22.3109 14.7219C22.3406 14.6586 22.3922 14.6234 22.4648 14.6469C22.5461 14.6742 22.5398 14.7367 22.5352 14.8023C22.518 14.9935 22.5021 15.1846 22.4875 15.3758C22.3734 15.4484 22.3445 15.382 22.3258 15.2836C22.3117 15.2125 22.3484 15.1359 22.3008 15.0703Z" fill="#17A34C"/>
<path fill-rule="evenodd" clip-rule="evenodd" d="M30.9406 18.0078C30.8703 17.9359 30.7953 17.868 30.7297 17.7914C30.6531 17.7008 30.6828 17.6453 30.7969 17.6305C30.9617 17.6672 31.0625 17.7469 31.0141 17.9359C30.9911 17.9599 30.9667 17.9839 30.9406 18.0078Z" fill="#D7EFE0"/>
<path fill-rule="evenodd" clip-rule="evenodd" d="M31.0141 17.9359C30.9383 17.8375 30.918 17.6969 30.7969 17.6305L30.8781 17.5625C31.0094 17.6555 31.2492 17.7086 31.0141 17.9359Z" fill="#2BAB5B"/>
<path fill-rule="evenodd" clip-rule="evenodd" d="M31.7742 18.5898C31.7641 18.5836 31.7508 18.5805 31.7461 18.5719C31.6836 18.4562 31.4766 18.3523 31.5469 18.25C31.6352 18.1266 31.7273 18.2727 31.7758 18.3781C31.7977 18.4227 31.8242 18.4664 31.8492 18.5125C31.8232 18.5385 31.7982 18.5643 31.7742 18.5898Z" fill="#E6F5EC"/>
<path fill-rule="evenodd" clip-rule="evenodd" d="M30.5703 18.125C30.5464 18.1495 30.5203 18.1732 30.4922 18.1977C30.4594 18.1742 30.4141 18.1586 30.393 18.125C30.3531 18.0492 30.2391 17.9484 30.3711 17.8891C30.482 17.8359 30.482 17.9773 30.518 18.0461C30.5328 18.075 30.5516 18.0992 30.5703 18.125Z" fill="#29AA59"/>
<path fill-rule="evenodd" clip-rule="evenodd" d="M22.3008 15.0703C22.4148 15.1148 22.3547 15.2102 22.3562 15.2812C22.3625 15.3789 22.3969 15.4117 22.4883 15.3773C22.2977 15.5617 22.3219 15.3156 22.2484 15.2609C22.268 15.1961 22.2828 15.1328 22.3008 15.0703Z" fill="#DDF1E4"/>
<path fill-rule="evenodd" clip-rule="evenodd" d="M21.9219 15.1953V14.9438C22.0297 14.9781 22.0328 15.0539 22.0219 15.1367L21.9219 15.1953Z" fill="#6FC690"/>
<path fill-rule="evenodd" clip-rule="evenodd" d="M19.975 14.9375C19.9859 14.8234 19.9312 14.675 20.1258 14.6875C20.268 14.6961 20.3711 14.7531 20.3789 14.9156C20.3867 15.0906 20.2844 15.1617 20.1227 15.1734C19.9172 15.1898 20.0008 15.0281 19.975 14.9375Z" fill="#F5FBF7"/>
<path fill-rule="evenodd" clip-rule="evenodd" d="M28.9844 16.6562C29.0656 16.7008 29.1898 16.7094 29.2164 16.8297C29.2297 16.8922 29.1758 16.9336 29.1203 16.9156C29.0172 16.8844 28.8805 16.8828 28.8664 16.7375C28.8625 16.6953 28.9078 16.6422 28.9844 16.6562Z" fill="#EFF8F3"/>
<path fill-rule="evenodd" clip-rule="evenodd" d="M26.4508 15.6953C26.4297 15.7766 26.3727 15.8047 26.307 15.7805C26.2187 15.7484 26.0766 15.7836 26.075 15.6289C26.0719 15.5484 26.1266 15.5242 26.2 15.5484C26.2969 15.5797 26.4141 15.5758 26.4508 15.6953Z" fill="#DEF2E5"/>
<path fill-rule="evenodd" clip-rule="evenodd" d="M19.1523 14.7336C19.2289 14.743 19.35 14.7023 19.3422 14.8328C19.3344 14.9469 19.2188 14.9289 19.1359 14.9305C19.0695 14.9328 18.9742 14.9672 18.968 14.8477C18.9633 14.7055 19.0742 14.75 19.1523 14.7336Z" fill="#F3FAF5"/>
<path fill-rule="evenodd" clip-rule="evenodd" d="M18.1641 14.8422C18.3055 14.8516 18.3758 14.9359 18.3813 15.0688C18.3891 15.1875 18.3305 15.2891 18.2086 15.3C18.068 15.3133 18.0047 15.2063 17.9969 15.0758C17.9891 14.9555 18.0359 14.868 18.1641 14.8422Z" fill="#F3FAF6"/>
<path fill-rule="evenodd" clip-rule="evenodd" d="M32.5508 19.0586C32.5305 19.1883 32.4523 19.2797 32.3016 19.2797C32.1805 19.2781 32.1352 19.1898 32.1477 19.0828C32.1594 18.9375 32.2461 18.8438 32.3937 18.8461C32.5102 18.8492 32.5555 18.9328 32.5508 19.0586Z" fill="#F9FCFA"/>
<path fill-rule="evenodd" clip-rule="evenodd" d="M25.2188 15.2719C25.2977 15.3203 25.4563 15.2703 25.4789 15.4266C25.4859 15.4859 25.4203 15.5164 25.368 15.5047C25.2656 15.482 25.1227 15.5188 25.1102 15.3539C25.1078 15.3031 25.1305 15.2484 25.2188 15.2719Z" fill="#E7F5EC"/>
<path fill-rule="evenodd" clip-rule="evenodd" d="M27.3594 16.1227C27.3445 16.2578 27.2781 16.3523 27.1414 16.3523C27.007 16.3539 26.9594 16.2602 26.9656 16.1367C26.9766 16.0008 27.0539 15.9102 27.1859 15.9047C27.3172 15.9 27.3594 16.0047 27.3594 16.1227Z" fill="#F5FBF7"/>
</svg>
