<svg width="445" height="395" viewBox="0 0 445 395" fill="none" xmlns="http://www.w3.org/2000/svg">
<path d="M222.734 0C226.175 4.07244 235.555 22.7165 238.96 28.7863L281.399 104.024L389.887 296.992C408.28 329.447 426.435 362.033 444.351 394.755C436.177 394.069 421.776 394.449 413.301 394.442L354.918 394.448C324.107 339.121 293.002 283.954 261.615 228.953C249.589 207.573 233.363 181.153 222.881 159.668C210.622 183.034 193.913 210.288 180.654 233.72L90.0155 394.485L0 394.559C22.0626 353.249 47.862 309.088 71.0041 268.117L222.734 0Z" fill="#F1F1F1"/>
<path d="M222.581 291.985C224.479 293.819 238.55 319.577 240.65 323.305L281.448 394.908C274.89 394.338 265.816 394.565 259.062 394.559L221.656 394.54C202.852 394.559 181.754 394.161 163.105 394.834C171.417 378.969 183.102 360.045 192.192 344.241C201.049 328.841 212.858 306.332 222.581 291.985Z" fill="#0069A8"/>
</svg>
