<svg width="768" height="108" viewBox="0 0 768 108" fill="none" xmlns="http://www.w3.org/2000/svg">
<path d="M728.636 0.161919C743.026 -1.11167 754.733 5.29303 765.705 13.5653C762.778 16.8411 760.262 20.2455 757.604 23.7418C746.032 12.6713 728.367 6.58498 713.292 17.3677C710.806 19.1434 707.047 26.3195 707.567 29.4423C710.059 43.3783 731.288 46.0664 744.213 50.126C766.899 57.2471 776.053 77.6981 759.503 97.1204C752.173 105.723 737.631 107.125 726.071 107.064C709.943 105.215 702.344 101.792 691.408 90.0176C694.219 87.5378 697.605 84.017 700.342 81.3351C702.166 83.1782 704.071 84.9416 706.042 86.6254C714.272 93.5261 724.332 96.061 735.084 95.2161C745.371 94.4017 756.527 87.0051 754.292 75.3162C751.922 64.0008 737.19 61.4719 727.865 58.7839C714.56 55.0979 696.796 50.6526 695.039 34.1448C693.704 21.5436 698.97 9.72608 710.757 4.34393C717.168 1.41711 721.73 0.780347 728.636 0.161919Z" fill="#161616"/>
<path d="M47.4616 1.86425L58.5284 1.98061C72.9879 36.6799 89.7228 71.0058 104.306 105.564C99.9428 105.368 94.6145 105.576 90.171 105.644L53.9722 23.0439C53.5467 21.6111 53.6195 21.6662 52.6833 20.5212C50.9927 22.0459 18.2332 97.1389 14.5238 105.479C9.37926 105.405 5.11091 105.313 0 105.723C16.1759 72.6528 32.0511 35.6022 47.4616 1.86425Z" fill="#161616"/>
<path d="M552.862 2.048L563.008 1.78466L590.971 65.0051C596.746 78.0717 603.309 92.2833 608.49 105.515C604.203 105.472 599.342 105.717 595.013 105.834C582.601 77.8207 570.416 49.7037 558.464 21.4887C557.962 20.0559 558.372 20.6314 557.301 19.7191C554.723 24.2256 547.7 41.6213 545.349 47.0585C536.972 66.6768 528.32 86.1787 519.411 105.558C514.782 105.576 510.153 105.656 505.524 105.809C511.684 92.8895 549.457 5.18912 552.862 2.048Z" fill="#161616"/>
<path d="M178.983 1.69872L263.378 1.73544L263.361 14.0122L226.781 14.0611C227.087 32.718 226.954 51.7852 227.019 70.4728L226.942 105.643C222.619 105.282 218.328 105.423 214.01 105.705C214.082 75.6039 213.438 43.9967 214.179 14.0734L178.979 14.0856L178.983 1.69872Z" fill="#161616"/>
<path d="M354.859 1.73559L367.805 1.7785C367.198 31.6651 367.67 63.6641 367.793 93.6731L422.3 93.6793C422.343 96.8816 422.588 102.441 422.116 105.417C408.45 105.742 394.783 105.809 381.116 105.625C373.401 105.564 362.208 105.129 354.832 105.668L354.859 1.73559Z" fill="#161616"/>
<path d="M51.1491 66.407C55.0354 65.5621 58.8782 67.9991 59.7746 71.875C60.6704 75.7448 58.288 79.6206 54.4262 80.5697C51.8808 81.1942 49.1952 80.4043 47.3981 78.4939C45.601 76.5897 44.9697 73.8588 45.7467 71.3545C46.5237 68.8502 48.5878 66.9581 51.1491 66.407Z" fill="#161616"/>
<path d="M556.529 66.4193C560.356 65.9233 563.895 68.5318 564.55 72.3403C565.206 76.1427 562.75 79.786 558.972 80.6003C556.388 81.1575 553.707 80.2512 551.986 78.2429C550.266 76.2345 549.782 73.4486 550.731 70.9748C551.68 68.5073 553.909 66.7561 556.529 66.4193Z" fill="#161616"/>
</svg>
