<svg width="768" height="580" viewBox="0 0 768 580" fill="none" xmlns="http://www.w3.org/2000/svg">
<path d="M386.939 0C390.38 4.07244 399.761 22.7165 403.165 28.7863L445.604 104.024L554.092 296.992C572.486 329.447 590.64 362.033 608.556 394.755C600.382 394.069 585.981 394.449 577.506 394.442L519.123 394.448C488.312 339.121 457.207 283.954 425.82 228.953C413.795 207.573 397.568 181.153 387.086 159.668C374.827 183.034 358.118 210.288 344.859 233.72L254.221 394.485L164.205 394.559C186.268 353.249 212.067 309.088 235.209 268.117L386.939 0Z" fill="#161616"/>
<path d="M386.786 291.985C388.684 293.819 402.755 319.577 404.855 323.305L445.653 394.908C439.095 394.338 430.021 394.565 423.267 394.559L385.862 394.54C367.057 394.559 345.96 394.161 327.311 394.834C335.622 378.969 347.307 360.045 356.397 344.241C365.254 328.841 377.063 306.332 386.786 291.985Z" fill="#0069A8"/>
<path d="M728.636 472.505C743.026 471.232 754.733 477.636 765.705 485.909C762.778 489.184 760.262 492.589 757.604 496.085C746.032 485.015 728.367 478.928 713.292 489.711C710.806 491.487 707.047 498.663 707.567 501.786C710.059 515.722 731.288 518.41 744.213 522.469C766.899 529.59 776.053 550.041 759.503 569.464C752.173 578.067 737.631 579.469 726.071 579.407C709.943 577.558 702.344 574.135 691.408 562.361C694.219 559.881 697.605 556.36 700.342 553.678C702.166 555.521 704.071 557.285 706.042 558.969C714.272 565.869 724.332 568.404 735.084 567.559C745.371 566.745 756.527 559.348 754.292 547.659C751.922 536.344 737.19 533.815 727.865 531.127C714.56 527.441 696.796 522.996 695.039 506.488C693.704 493.887 698.97 482.069 710.757 476.687C717.168 473.76 721.73 473.124 728.636 472.505Z" fill="#161616"/>
<path d="M47.4616 474.208L58.5284 474.324C72.9879 509.023 89.7228 543.349 104.306 577.908C99.9428 577.712 94.6145 577.92 90.171 577.987L53.9722 495.387C53.5467 493.954 53.6195 494.01 52.6833 492.865C50.9927 494.389 18.2332 569.482 14.5238 577.822C9.37926 577.748 5.11091 577.656 0 578.067C16.1759 544.996 32.0511 507.945 47.4616 474.208Z" fill="#161616"/>
<path d="M552.862 474.391L563.008 474.128L590.971 537.348C596.746 550.415 603.309 564.627 608.49 577.858C604.203 577.816 599.342 578.061 595.013 578.177C582.601 550.164 570.416 522.047 558.464 493.832C557.962 492.399 558.372 492.975 557.301 492.062C554.723 496.569 547.7 513.965 545.349 519.402C536.972 539.02 528.32 558.522 519.411 577.901C514.782 577.92 510.153 577.999 505.524 578.152C511.684 565.233 549.457 477.532 552.862 474.391Z" fill="#161616"/>
<path d="M178.983 474.042L263.378 474.079L263.361 486.355L226.781 486.404C227.087 505.061 226.954 524.128 227.019 542.816L226.942 577.987C222.619 577.625 218.328 577.766 214.01 578.048C214.082 547.947 213.438 516.34 214.179 486.417L178.979 486.429L178.983 474.042Z" fill="#161616"/>
<path d="M354.859 474.079L367.805 474.122C367.198 504.008 367.67 536.007 367.793 566.016L422.3 566.023C422.343 569.225 422.588 574.785 422.116 577.76C408.45 578.085 394.783 578.152 381.116 577.969C373.401 577.907 362.208 577.473 354.832 578.011L354.859 474.079Z" fill="#161616"/>
<path d="M51.1491 538.75C55.0354 537.905 58.8782 540.342 59.7746 544.218C60.6704 548.088 58.288 551.964 54.4262 552.913C51.8808 553.538 49.1952 552.748 47.3981 550.837C45.601 548.933 44.9697 546.202 45.7467 543.698C46.5237 541.193 48.5878 539.301 51.1491 538.75Z" fill="#161616"/>
<path d="M556.529 538.763C560.356 538.267 563.895 540.875 564.55 544.684C565.206 548.486 562.75 552.129 558.972 552.944C556.388 553.501 553.707 552.594 551.986 550.586C550.266 548.578 549.782 545.792 550.731 543.318C551.68 540.851 553.909 539.099 556.529 538.763Z" fill="#161616"/>
</svg>
